<?xml version="1.0" encoding="UTF-8" standalone="no"?>
<!-- Created with Inkscape (http://www.inkscape.org/) -->

<svg
   xmlns:dc="http://purl.org/dc/elements/1.1/"
   xmlns:cc="http://creativecommons.org/ns#"
   xmlns:rdf="http://www.w3.org/1999/02/22-rdf-syntax-ns#"
   xmlns:svg="http://www.w3.org/2000/svg"
   xmlns="http://www.w3.org/2000/svg"
   xmlns:sodipodi="http://sodipodi.sourceforge.net/DTD/sodipodi-0.dtd"
   xmlns:inkscape="http://www.inkscape.org/namespaces/inkscape"
   width="210mm"
   height="297mm"
   viewBox="0 0 210 297"
   version="1.1"
   id="svg8"
   inkscape:version="0.92.4 (5da689c313, 2019-01-14)"
   sodipodi:docname="schema.svg">
  <defs
     id="defs2" />
  <sodipodi:namedview
     id="base"
     pagecolor="#ffffff"
     bordercolor="#666666"
     borderopacity="1.0"
     inkscape:pageopacity="0.0"
     inkscape:pageshadow="2"
     inkscape:zoom="1.01"
     inkscape:cx="237.12871"
     inkscape:cy="560"
     inkscape:document-units="mm"
     inkscape:current-layer="layer1"
     showgrid="false"
     inkscape:window-width="1920"
     inkscape:window-height="1001"
     inkscape:window-x="-9"
     inkscape:window-y="-9"
     inkscape:window-maximized="1" />
  <metadata
     id="metadata5">
    <rdf:RDF>
      <cc:Work
         rdf:about="">
        <dc:format>image/svg+xml</dc:format>
        <dc:type
           rdf:resource="http://purl.org/dc/dcmitype/StillImage" />
        <dc:title></dc:title>
      </cc:Work>
    </rdf:RDF>
  </metadata>
  <g
     inkscape:label="Calque 1"
     inkscape:groupmode="layer"
     id="layer1">
    <ellipse
       id="path16"
       cx="45.974625"
       cy="124.36593"
       rx="21.35004"
       ry="11.526402"
       style="stroke:#000000;stroke-width:1.29999995;stroke-miterlimit:4;stroke-dasharray:none;stroke-opacity:0" />
    <ellipse
       id="path16-5"
       cx="129.93399"
       cy="92.930283"
       rx="21.35004"
       ry="11.526403"
       style="stroke-width:2;fill:#fff000;fill-opacity:0;stroke:#000000;stroke-opacity:0;stroke-miterlimit:4;stroke-dasharray:none" />
    <ellipse
       id="path16-9"
       cx="140.41254"
       cy="99.479378"
       rx="21.35004"
       ry="11.526403"
       style="stroke:#000000;stroke-width:1.29999995;stroke-miterlimit:4;stroke-dasharray:none;stroke-opacity:0" />
    <ellipse
       id="path16-9-7"
       cx="139.88861"
       cy="148.99051"
       rx="21.35004"
       ry="11.526404"
       style="stroke:#000000;stroke-width:1.29999995;stroke-miterlimit:4;stroke-dasharray:none;stroke-opacity:0" />
    <path
       style="fill:none;stroke:#000000;stroke-width:0.26458332px;stroke-linecap:butt;stroke-linejoin:miter;stroke-opacity:1"
       d="m 123.12293,102.36097 c -20.34584,6.5491 -40.691687,13.09819 -61.037534,19.64728"
       id="path4571"
       inkscape:connector-curvature="0" />
    <path
       style="fill:none;stroke:#000000;stroke-width:0.26458332px;stroke-linecap:butt;stroke-linejoin:miter;stroke-opacity:1"
       d="m 63.919142,127.24752 c 0.960532,0.0873 1.941089,0.0482 2.8816,0.26197 0.926775,0.21063 6.460718,2.48927 6.811055,2.61963 2.433259,0.9054 4.883338,1.76528 7.334983,2.61964 8.775721,3.05821 10.380215,3.46503 18.861386,6.54909 2.804614,1.01986 5.590734,2.08994 8.382834,3.14357 1.83594,0.6928 3.6827,1.35846 5.50124,2.09571 3.16775,1.28422 4.31988,1.99495 7.33499,3.14356 0.77413,0.29491 1.58852,0.47823 2.35767,0.78589 0.11466,0.0459 0.15921,0.19347 0.26196,0.26197 0.16247,0.1083 0.3455,0.18266 0.52393,0.26196 1.78534,0.79348 1.37266,0.78589 2.61964,0.78589"
       id="path4581"
       inkscape:connector-curvature="0" />
    <path
       style="fill:none;stroke:#000000;stroke-width:0.26458332px;stroke-linecap:butt;stroke-linejoin:miter;stroke-opacity:1"
       d="m 62.085396,122.00825 c -2.147614,-4.41495 3.58017,-0.26196 4.453382,-1.57178 0.09688,-0.14532 -0.05523,-0.35825 0,-0.52393 0.03905,-0.11715 0.174641,-0.17464 0.261964,-0.26196 0.174641,-0.17465 0.386927,-0.31843 0.523928,-0.52393 0.04843,-0.0727 -0.02761,-0.17912 0,-0.26196 0.06174,-0.18524 0.200218,-0.3387 0.261962,-0.52393 0.02761,-0.0828 -0.03905,-0.18386 0,-0.26197 0.05523,-0.11045 0.206737,-0.15151 0.261964,-0.26196 0.03905,-0.0781 -0.06175,-0.20022 0,-0.26196 0.60203,-0.60203 0.523927,0.0679 0.523927,-0.52393"
       id="path4591"
       inkscape:connector-curvature="0" />
    <path
       style="fill:none;stroke:#000000;stroke-width:0.26458332px;stroke-linecap:butt;stroke-linejoin:miter;stroke-opacity:1"
       d="m 62.085396,122.00825 c 0.875893,1.13672 2.61434,-1.37663 3.929455,-1.04786 0.189425,0.0474 0.334502,0.21461 0.523927,0.26197 0.169429,0.0424 0.351661,-0.0287 0.523928,0 0.355135,0.0592 0.692719,0.20277 1.047854,0.26196 0.209288,0.0349 1.446757,-0.0625 1.571783,0 0.156205,0.0781 -0.123491,0.40044 0,0.52393 0.602031,0.60203 0.523926,-0.0679 0.523926,0.52393"
       id="path4593"
       inkscape:connector-curvature="0" />
    <path
       style="fill:none;stroke:#000000;stroke-width:0.26458332px;stroke-linecap:butt;stroke-linejoin:miter;stroke-opacity:1"
       d="m 63.919142,127.24752 c 0.436604,0.0873 0.870624,0.18877 1.309817,0.26197 0.501081,0.0835 0.805764,-0.16116 1.309819,-0.26197 0.171252,-0.0343 0.349285,0 0.523928,0 0.600427,0 1.237554,0.0497 1.833745,0 0.787996,-0.0657 1.570871,-0.18328 2.357673,-0.26196 0.58038,-0.058 1.240949,0 1.833745,0"
       id="path4595"
       inkscape:connector-curvature="0" />
    <path
       style="fill:none;stroke:#000000;stroke-width:0.26458332px;stroke-linecap:butt;stroke-linejoin:miter;stroke-opacity:1"
       d="m 62.085396,122.00825 6.549091,9.16873"
       id="path4599"
       inkscape:connector-curvature="0" />
    <text
       xml:space="preserve"
       style="font-style:normal;font-weight:normal;font-size:10.58333302px;line-height:1.25;font-family:sans-serif;letter-spacing:0px;word-spacing:0px;fill:#000000;fill-opacity:1;stroke:none;stroke-width:0.26458332"
       x="37.984737"
       y="128.03342"
       id="text4603"><tspan
         sodipodi:role="line"
         id="tspan4601"
         x="37.984737"
         y="128.03342"
         style="fill:#ffffff;fill-opacity:1;stroke-width:0.26458332">VP1</tspan></text>
    <text
       xml:space="preserve"
       style="font-style:normal;font-weight:normal;font-size:10.58333302px;line-height:1.25;font-family:sans-serif;letter-spacing:0px;word-spacing:0px;fill:#000000;fill-opacity:1;stroke:none;stroke-width:0.26458332"
       x="129.94766"
       y="103.60156"
       id="text4603-3"><tspan
         sodipodi:role="line"
         id="tspan4601-7"
         x="129.94766"
         y="103.60156"
         style="fill:#ffffff;fill-opacity:1;stroke-width:0.26458332">VP2</tspan></text>
    <text
       xml:space="preserve"
       style="font-style:normal;font-weight:normal;font-size:10.58333302px;line-height:1.25;font-family:sans-serif;letter-spacing:0px;word-spacing:0px;fill:#000000;fill-opacity:1;stroke:none;stroke-width:0.26458332"
       x="130.47159"
       y="153.38515"
       id="text4603-36"><tspan
         sodipodi:role="line"
         x="130.47159"
         y="153.38515"
         style="fill:#ffffff;fill-opacity:1;stroke-width:0.26458332"
         id="tspan4653">VP3</tspan></text>
  </g>
</svg>
